<svg width="15" height="15" viewBox="0 0 15 15" fill="none" xmlns="http://www.w3.org/2000/svg">
<path d="M6.5 2.4987L6.14647 2.14512L5.79284 2.4987L6.14647 2.85228L6.5 2.4987ZM7.5 1.99872H7V2.99872H7.5V1.99872ZM2 8.49481V7.99481H1V8.49481H2ZM8.14547 0.14642L6.14647 2.14512L6.85353 2.85228L8.85253 0.85358L8.14547 0.14642ZM6.14647 2.85228L8.14547 4.85097L8.85253 4.14381L6.85353 2.14512L6.14647 2.85228ZM7.5 2.99872C10.5372 2.99872 13 5.46042 13 8.49481H14C14 4.90752 11.0888 1.99872 7.5 1.99872V2.99872ZM13 8.49481C13 11.5292 10.5372 13.9909 7.5 13.9909V14.9909C11.0888 14.9909 14 12.0821 14 8.49481H13ZM7.5 13.9909C4.46283 13.9909 2 11.5292 2 8.49481H1C1 12.0821 3.91117 14.9909 7.5 14.9909V13.9909Z" fill="black"/>
</svg>
