<svg width="15" height="15" viewBox="0 0 15 15" fill="none" xmlns="http://www.w3.org/2000/svg">
<path d="M4.14645 6.75756L3.79289 7.11111L4.5 7.81822L4.85355 7.46466L4.14645 6.75756ZM6.83333 4.77778L7.18689 4.42422C6.99162 4.22896 6.67504 4.22896 6.47978 4.42422L6.83333 4.77778ZM8.38889 6.33333L8.03534 6.68689C8.1291 6.78066 8.25628 6.83333 8.38889 6.83333C8.5215 6.83333 8.64867 6.78066 8.74244 6.68689L8.38889 6.33333ZM11.0758 4.35355L11.4293 4L10.7222 3.29289L10.3687 3.64645L11.0758 4.35355ZM4.85355 7.46466L7.18689 5.13133L6.47978 4.42422L4.14645 6.75756L4.85355 7.46466ZM6.47978 5.13133L8.03534 6.68689L8.74244 5.97978L7.18689 4.42422L6.47978 5.13133ZM8.74244 6.68689L11.0758 4.35355L10.3687 3.64645L8.03534 5.97978L8.74244 6.68689ZM0 1H15V0H0V1ZM1 0.5V10.5H2V0.5H1ZM14 10.5V0.5H13V10.5H14ZM7 10.5V15H8V10.5H7ZM4 15H11V14H4V15ZM0 11H15V10H0V11Z" fill="black"/>
</svg>
