<svg width="15" height="15" viewBox="0 0 15 15" fill="none" xmlns="http://www.w3.org/2000/svg">
<path d="M8.85355 4.85355L9.20711 4.5L8.5 3.79289L8.14645 4.14644L8.85355 4.85355ZM5.5 7.5L5.14645 7.14644L4.79289 7.5L5.14645 7.85355L5.5 7.5ZM8.14645 10.8536L8.5 11.2071L9.20711 10.5L8.85355 10.1464L8.14645 10.8536ZM8.14645 4.14644L5.14645 7.14644L5.85355 7.85355L8.85355 4.85355L8.14645 4.14644ZM5.14645 7.85355L8.14645 10.8536L8.85355 10.1464L5.85355 7.14644L5.14645 7.85355ZM7.5 14C3.91015 14 0.999998 11.0898 0.999999 7.5L-9.53674e-07 7.5C-1.67791e-06 11.6421 3.35786 15 7.5 15L7.5 14ZM14 7.5C14 11.0899 11.0898 14 7.5 14L7.5 15C11.6421 15 15 11.6421 15 7.5L14 7.5ZM7.5 1C11.0899 1 14 3.91015 14 7.5L15 7.5C15 3.35787 11.6421 7.24234e-07 7.5 0L7.5 1ZM7.5 0C3.35787 -7.24234e-07 -2.2944e-07 3.35786 -9.53674e-07 7.5L0.999999 7.5C1 3.91015 3.91015 0.999999 7.5 1L7.5 0Z" fill="black"/>
</svg>
