<svg width="17" height="15" viewBox="0 0 17 15" fill="none" xmlns="http://www.w3.org/2000/svg">
<path fill-rule="evenodd" clip-rule="evenodd" d="M6.944 0.5L6.858 0.936707L6.52901 2.53467C6.00301 2.73554 5.526 3.02037 5.095 3.35815L3.487 2.8205L3.05501 2.68658L2.83101 3.07233L1.724 4.9231L1.5 5.3089L1.828 5.5957L3.07201 6.65399C3.02701 6.93081 2.96901 7.20461 2.96901 7.49542C2.96901 7.78623 3.02701 8.0601 3.07201 8.33691L1.828 9.3952L1.5 9.68201L1.724 10.0677L2.83101 11.9186L3.05501 12.3053L3.487 12.1704L5.095 11.6328C5.526 11.9705 6.00301 12.2553 6.52901 12.4562L6.858 14.0541L6.944 14.4909H10.055L10.142 14.0541L10.47 12.4562C10.996 12.2553 11.473 11.9705 11.904 11.6328L13.512 12.1704L13.944 12.3053L14.169 11.9186L15.275 10.0677L15.5 9.68201L15.171 9.3952L13.927 8.33691C13.973 8.0601 14.03 7.78623 14.03 7.49542C14.03 7.20461 13.973 6.93081 13.927 6.65399L15.171 5.5957L15.5 5.3089L15.275 4.9231L14.169 3.07233L13.944 2.68658L13.512 2.8205L11.904 3.35815C11.473 3.02037 10.996 2.73554 10.47 2.53467L10.142 0.936707L10.055 0.5H6.944Z" stroke="black" stroke-linecap="square"/>
<path fill-rule="evenodd" clip-rule="evenodd" d="M10.4996 7.49542C10.4996 8.5987 9.60363 9.49414 8.49963 9.49414C7.39563 9.49414 6.49963 8.5987 6.49963 7.49542C6.49963 6.39214 7.39563 5.49677 8.49963 5.49677C9.60363 5.49677 10.4996 6.39214 10.4996 7.49542Z" stroke="black" stroke-linecap="square"/>
</svg>
