<svg width="17" height="15" viewBox="0 0 17 15" fill="none" xmlns="http://www.w3.org/2000/svg">
<path d="M1.5 7.5L1.03576 7.31431L0.961484 7.5L1.03576 7.68569L1.5 7.5ZM15.5 7.5L15.9642 7.6857L16.0385 7.5L15.9642 7.3143L15.5 7.5ZM8.49998 12C6.18597 12 4.56111 10.8483 3.49664 9.66552C2.96405 9.07375 2.57811 8.48029 2.32563 8.03474C2.19968 7.81247 2.10772 7.62838 2.04797 7.50164C2.01811 7.4383 1.99635 7.3894 1.98246 7.35735C1.97552 7.34133 1.97055 7.32953 1.96752 7.32225C1.966 7.31861 1.96497 7.3161 1.96443 7.31477C1.96416 7.3141 1.96401 7.31372 1.96397 7.31364C1.96396 7.31361 1.96397 7.31364 1.96402 7.31375C1.96404 7.31381 1.96409 7.31394 1.9641 7.31397C1.96417 7.31413 1.96424 7.31431 1.5 7.5C1.03576 7.68569 1.03585 7.68591 1.03594 7.68614C1.03598 7.68625 1.03608 7.6865 1.03617 7.68671C1.03633 7.68712 1.03653 7.68761 1.03676 7.68818C1.03722 7.68931 1.0378 7.69075 1.03851 7.69248C1.03992 7.69595 1.04184 7.70062 1.04426 7.70644C1.04911 7.71808 1.05598 7.73436 1.0649 7.75495C1.08275 7.79614 1.10884 7.85467 1.14344 7.92805C1.21259 8.07474 1.31594 8.28128 1.45561 8.52776C1.73438 9.01971 2.16093 9.67625 2.75334 10.3345C3.93886 11.6517 5.814 13 8.49998 13V12ZM1.5 7.5C1.96424 7.68569 1.96417 7.68587 1.9641 7.68603C1.96409 7.68606 1.96404 7.68619 1.96402 7.68625C1.96397 7.68636 1.96396 7.68639 1.96397 7.68636C1.96401 7.68628 1.96416 7.6859 1.96443 7.68523C1.96497 7.6839 1.966 7.68139 1.96752 7.67775C1.97055 7.67047 1.97552 7.65867 1.98246 7.64265C1.99635 7.6106 2.01811 7.5617 2.04797 7.49836C2.10772 7.37162 2.19968 7.18753 2.32563 6.96526C2.57811 6.51971 2.96405 5.92625 3.49664 5.33448C4.56111 4.15173 6.18597 3 8.49998 3V2C5.814 2 3.93886 3.34827 2.75334 4.66552C2.16093 5.32375 1.73438 5.98029 1.45561 6.47224C1.31594 6.71872 1.21259 6.92526 1.14344 7.07195C1.10884 7.14533 1.08275 7.20386 1.0649 7.24505C1.05598 7.26564 1.04911 7.28192 1.04426 7.29356C1.04184 7.29938 1.03992 7.30405 1.03851 7.30752C1.0378 7.30925 1.03722 7.31069 1.03676 7.31182C1.03653 7.31239 1.03633 7.31288 1.03617 7.31329C1.03608 7.3135 1.03598 7.31375 1.03594 7.31386C1.03585 7.31409 1.03576 7.31431 1.5 7.5ZM8.49998 3C10.814 3 12.4389 4.15173 13.5033 5.33448C14.0359 5.92625 14.4219 6.51971 14.6744 6.96526C14.8003 7.18754 14.8923 7.37162 14.952 7.49837C14.9819 7.5617 15.0037 7.6106 15.0175 7.64265C15.0245 7.65868 15.0295 7.67048 15.0325 7.67775C15.034 7.68139 15.035 7.6839 15.0356 7.68524C15.0358 7.6859 15.036 7.68628 15.036 7.68636C15.036 7.6864 15.036 7.68636 15.036 7.68625C15.036 7.6862 15.0359 7.68606 15.0359 7.68603C15.0358 7.68587 15.0358 7.6857 15.5 7.5C15.9642 7.3143 15.9642 7.31409 15.9641 7.31385C15.964 7.31375 15.9639 7.3135 15.9638 7.31329C15.9637 7.31288 15.9635 7.31239 15.9632 7.31182C15.9628 7.31069 15.9622 7.30925 15.9615 7.30752C15.9601 7.30405 15.9582 7.29938 15.9557 7.29356C15.9509 7.28192 15.944 7.26564 15.9351 7.24504C15.9172 7.20385 15.8912 7.14533 15.8566 7.07195C15.7874 6.92526 15.6841 6.71871 15.5444 6.47224C15.2656 5.98029 14.8391 5.32375 14.2466 4.66552C13.0611 3.34827 11.186 2 8.49998 2V3ZM15.5 7.5C15.0358 7.3143 15.0358 7.31413 15.0359 7.31397C15.0359 7.31394 15.036 7.3138 15.036 7.31375C15.036 7.31364 15.036 7.3136 15.036 7.31364C15.036 7.31372 15.0358 7.3141 15.0356 7.31476C15.035 7.3161 15.034 7.31861 15.0325 7.32225C15.0295 7.32952 15.0245 7.34132 15.0175 7.35735C15.0037 7.3894 14.9819 7.4383 14.952 7.50163C14.8923 7.62838 14.8003 7.81246 14.6744 8.03474C14.4219 8.48029 14.0359 9.07375 13.5033 9.66552C12.4389 10.8483 10.814 12 8.49998 12V13C11.186 13 13.0611 11.6517 14.2466 10.3345C14.8391 9.67625 15.2656 9.01971 15.5444 8.52776C15.6841 8.28129 15.7874 8.07474 15.8566 7.92805C15.8912 7.85467 15.9172 7.79615 15.9351 7.75496C15.944 7.73436 15.9509 7.71808 15.9557 7.70644C15.9582 7.70062 15.9601 7.69595 15.9615 7.69248C15.9622 7.69075 15.9628 7.68931 15.9632 7.68818C15.9635 7.68761 15.9637 7.68712 15.9638 7.68671C15.9639 7.6865 15.964 7.68625 15.9641 7.68615C15.9642 7.68591 15.9642 7.6857 15.5 7.5ZM8.5 9C7.67157 9 7 8.32843 7 7.5H6C6 8.88071 7.11929 10 8.5 10V9ZM10 7.5C10 8.32843 9.32843 9 8.5 9V10C9.88071 10 11 8.88071 11 7.5H10ZM8.5 6C9.32843 6 10 6.67157 10 7.5H11C11 6.11929 9.88071 5 8.5 5V6ZM8.5 5C7.11929 5 6 6.11929 6 7.5H7C7 6.67157 7.67157 6 8.5 6V5Z" fill="black"/>
</svg>
