<svg width="15" height="15" viewBox="0 0 15 15" fill="none" xmlns="http://www.w3.org/2000/svg">
<path d="M7.5 14C3.91015 14 1 11.0899 1 7.5H0C0 11.6421 3.35786 15 7.5 15V14ZM11.3934 12.7055C10.3082 13.5186 8.96104 14 7.5 14V15C9.18457 15 10.7407 14.444 11.993 13.5057L11.3934 12.7055ZM7.5 0C3.35786 0 0 3.35786 0 7.5H1C1 3.91015 3.91015 1 7.5 1V0ZM7.5 1C9.31889 1 10.9625 1.74643 12.1429 2.95097L12.8571 2.25107C11.4964 0.862501 9.59849 0 7.5 0V1ZM11.993 13.5057C12.7995 12.9015 13.2432 12.1658 13.33 11.3763C13.4158 10.5958 13.1445 9.83978 12.6728 9.19916C11.7372 7.92841 9.94046 7 8 7V8C9.64939 8 11.1357 8.79813 11.8675 9.79205C12.2295 10.2838 12.3879 10.7946 12.336 11.267C12.285 11.7303 12.0234 12.2334 11.3934 12.7055L11.993 13.5057Z" fill="black"/>
</svg>
