<svg width="15" height="15" viewBox="0 0 15 15" fill="none" xmlns="http://www.w3.org/2000/svg">
<path d="M14.5 12V7.5C14.5 3.63401 11.366 0.5 7.5 0.5C3.63401 0.5 0.5 3.63401 0.5 7.5V12M4.5 14.5C5.05228 14.5 5.5 14.0523 5.5 13.5V9.5C5.5 8.94772 5.05228 8.5 4.5 8.5C3.39543 8.5 2.5 9.39543 2.5 10.5V12.5C2.5 13.6046 3.39543 14.5 4.5 14.5ZM10.5 14.5C11.6046 14.5 12.5 13.6046 12.5 12.5V10.5C12.5 9.39543 11.6046 8.5 10.5 8.5C9.94772 8.5 9.5 8.94772 9.5 9.5V13.5C9.5 14.0523 9.94772 14.5 10.5 14.5Z" stroke="black"/>
</svg>
