<svg width="15" height="15" viewBox="0 0 15 15" fill="none" xmlns="http://www.w3.org/2000/svg">
<path d="M0.5 8.5L0.276393 8.05279C0.0689856 8.15649 -0.0399016 8.38919 0.0133755 8.61488C0.0666526 8.84056 0.268111 9 0.5 9L0.5 8.5ZM2.15836 7.67082L2.38197 8.11803L2.38197 8.11803L2.15836 7.67082ZM2.5 10.5L2.85355 10.8536C2.99655 10.7106 3.03933 10.4955 2.96194 10.3087C2.88455 10.1218 2.70223 10 2.5 10V10.5ZM1.5 11.5L1.14645 11.1464C1.00345 11.2894 0.96067 11.5045 1.03806 11.6913C1.11545 11.8782 1.29777 12 1.5 12V11.5ZM1.5 2.5H2V2H1.5V2.5ZM5 8H15V7H5V8ZM5 4H15V3H5V4ZM5 12H15V11H5V12ZM3 8H0.5V9H3V8ZM0.723607 8.94721L2.38197 8.11803L1.93475 7.22361L0.276393 8.05279L0.723607 8.94721ZM1.88197 6H1.5V7H1.88197V6ZM1.5 6C0.671573 6 0 6.67157 0 7.5H1C1 7.22386 1.22386 7 1.5 7V6ZM3 7.11803C3 6.50056 2.49944 6 1.88197 6V7C1.94715 7 2 7.05285 2 7.11803H3ZM2.38197 8.11803C2.76074 7.92865 3 7.54151 3 7.11803H2C2 7.16274 1.97474 7.20361 1.93475 7.22361L2.38197 8.11803ZM0 11H2.5V10H0V11ZM2.14645 10.1464L1.14645 11.1464L1.85355 11.8536L2.85355 10.8536L2.14645 10.1464ZM1.5 12H2.16667V11H1.5V12ZM1.83333 12H0V13H1.83333V12ZM2 11.8333C2 11.9254 1.92538 12 1.83333 12V13C2.47767 13 3 12.4777 3 11.8333H2ZM2.16667 12C2.07462 12 2 11.9254 2 11.8333H3C3 11.3731 2.6269 11 2.16667 11V12ZM0 5H3V4H0V5ZM2 4.5V2.5H1V4.5H2ZM1.5 2H0V3H1.5V2Z" fill="black"/>
</svg>
