<svg width="15" height="16" viewBox="0 0 15 16" fill="none" xmlns="http://www.w3.org/2000/svg">
<path d="M1.5 10.5V9.99999H1V10.5H1.5ZM13.5 10.5H14V9.99999H13.5V10.5ZM13.5 15.5V16H14V15.5H13.5ZM1.5 15.5H1V16H1.5V15.5ZM3.21907 7.16132C4.37371 5.76169 5.91677 4.99999 7.50004 4.99999V3.99999C5.58264 3.99999 3.76839 4.92401 2.44768 6.52496L3.21907 7.16132ZM7.50004 4.99999C9.08331 4.99999 10.6264 5.76169 11.781 7.16132L12.5524 6.52496C11.2317 4.92401 9.41745 3.99999 7.50004 3.99999V4.99999ZM0.885695 5.31818C2.65917 3.1684 5.04156 1.98528 7.5 1.98528V0.985275C4.70742 0.985275 2.05386 2.33072 0.114305 4.68181L0.885695 5.31818ZM7.5 1.98528C9.95844 1.98528 12.3408 3.1684 14.1143 5.31818L14.8857 4.68181C12.9461 2.33072 10.2926 0.985275 7.5 0.985275V1.98528ZM7 6.99999V9.99999H8V6.99999H7ZM1.5 11H13.5V9.99999H1.5V11ZM13 10.5V15.5H14V10.5H13ZM13.5 15H1.5V16H13.5V15ZM2 15.5V10.5H1V15.5H2Z" fill="black"/>
</svg>
