<svg width="15" height="15" viewBox="0 0 15 15" fill="none" xmlns="http://www.w3.org/2000/svg">
<path d="M2.40115 6.38957L1.90421 6.33435L2.40115 6.38957ZM1.62338 13.3896L2.12032 13.4448L2.12032 13.4448L1.62338 13.3896ZM13.3766 13.3896L12.8797 13.4448L12.8797 13.4448L13.3766 13.3896ZM12.5988 6.38957L13.0958 6.33435L13.0958 6.33435L12.5988 6.38957ZM1.90421 6.33435L1.12643 13.3344L2.12032 13.4448L2.8981 6.44478L1.90421 6.33435ZM2.61726 15H12.3827V14H2.61726V15ZM13.8736 13.3344L13.0958 6.33435L12.1019 6.44478L12.8797 13.4448L13.8736 13.3344ZM11.605 5H3.39504V6H11.605V5ZM13.0958 6.33435C13.0114 5.5747 12.3693 5 11.605 5V6C11.8597 6 12.0738 6.19157 12.1019 6.44478L13.0958 6.33435ZM12.3827 15C13.2767 15 13.9723 14.2229 13.8736 13.3344L12.8797 13.4448C12.9126 13.741 12.6807 14 12.3827 14V15ZM1.12643 13.3344C1.02771 14.2229 1.72324 15 2.61726 15V14C2.31925 14 2.08741 13.741 2.12032 13.4448L1.12643 13.3344ZM2.8981 6.44478C2.92623 6.19157 3.14026 6 3.39504 6V5C2.63071 5 1.98862 5.5747 1.90421 6.33435L2.8981 6.44478ZM5 4V3.5H4V4H5ZM10 3.5V4H11V3.5H10ZM7.5 1C8.88071 1 10 2.11929 10 3.5H11C11 1.567 9.43299 0 7.5 0V1ZM5 3.5C5 2.11929 6.11928 1 7.5 1V0C5.567 0 4 1.567 4 3.5H5Z" fill="black"/>
</svg>
