<svg width="16" height="16" viewBox="0 0 16 16" fill="none" xmlns="http://www.w3.org/2000/svg">
<path d="M2.8998 11.7004L3.34701 11.924L3.48533 11.6474L3.29956 11.4001L2.8998 11.7004ZM4.29959 13.1002L4.59991 12.7004L4.35262 12.5147L4.07598 12.653L4.29959 13.1002ZM1.5 14.5L1.05279 14.2764L0.381966 15.618L1.72361 14.9472L1.5 14.5ZM5.5 4.5L5.22265 4.08397C5.08355 4.17671 5 4.33282 5 4.5H5.5ZM11.5 10.5V11C11.6672 11 11.8233 10.9164 11.916 10.7774L11.5 10.5ZM7.25426 5.02554L7.74745 4.94334L7.74745 4.94334L7.25426 5.02554ZM7.3937 5.86221L6.90051 5.94441L6.90051 5.94441L7.3937 5.86221ZM6.96201 6.85866L7.23936 7.27469L7.23936 7.27469L6.96201 6.85866ZM11.6421 10.2868L12.0581 10.5642L11.6421 10.2868ZM10.9745 8.74574L11.0567 8.25255L11.0567 8.25255L10.9745 8.74574ZM10.1378 8.6063L10.0556 9.0995L10.0556 9.0995L10.1378 8.6063ZM9.14134 9.03799L8.72531 8.76064L8.72531 8.76064L9.14134 9.03799ZM1 7.5C1 9.18803 1.55827 10.7471 2.50003 12.0007L3.29956 11.4001C2.48342 10.3137 2 8.96403 2 7.5H1ZM8.5 0C4.35786 0 1 3.35786 1 7.5H2C2 3.91015 4.91015 1 8.5 1V0ZM16 7.5C16 3.35786 12.6421 0 8.5 0V1C12.0899 1 15 3.91015 15 7.5H16ZM8.5 15C12.6421 15 16 11.6421 16 7.5H15C15 11.0899 12.0899 14 8.5 14V15ZM3.99927 13.5C5.25289 14.4417 6.81197 15 8.5 15V14C7.03597 14 5.68629 13.5166 4.59991 12.7004L3.99927 13.5ZM1.72361 14.9472L4.5232 13.5474L4.07598 12.653L1.27639 14.0528L1.72361 14.9472ZM2.45258 11.4768L1.05279 14.2764L1.94721 14.7236L3.34701 11.924L2.45258 11.4768ZM5 4.5V5.5H6V4.5H5ZM10.5 11H11.5V10H10.5V11ZM5 5.5C5 8.53757 7.46243 11 10.5 11V10C8.01472 10 6 7.98528 6 5.5H5ZM5.77735 4.91603L5.99051 4.77392L5.43581 3.94187L5.22265 4.08397L5.77735 4.91603ZM6.76106 5.10774L6.90051 5.94441L7.8869 5.78001L7.74745 4.94334L6.76106 5.10774ZM6.68466 6.44264L5.72265 7.08397L6.27735 7.91603L7.23936 7.27469L6.68466 6.44264ZM6.90051 5.94441C6.93285 6.13849 6.84837 6.3335 6.68466 6.44264L7.23936 7.27469C7.73049 6.94727 7.98394 6.36225 7.8869 5.78001L6.90051 5.94441ZM5.99051 4.77392C6.29241 4.57266 6.70141 4.74985 6.76106 5.10774L7.74745 4.94334C7.56851 3.86967 6.34149 3.33808 5.43581 3.94187L5.99051 4.77392ZM11.916 10.7774L12.0581 10.5642L11.2261 10.0095L11.084 10.2226L11.916 10.7774ZM11.0567 8.25255L10.22 8.1131L10.0556 9.0995L10.8923 9.23894L11.0567 8.25255ZM8.72531 8.76064L8.08397 9.72265L8.91603 10.2774L9.55736 9.31534L8.72531 8.76064ZM10.22 8.1131C9.63775 8.01606 9.05273 8.26951 8.72531 8.76064L9.55736 9.31534C9.6665 9.15163 9.86151 9.06715 10.0556 9.0995L10.22 8.1131ZM12.0581 10.5642C12.6619 9.65851 12.1303 8.43149 11.0567 8.25255L10.8923 9.23894C11.2502 9.29859 11.4273 9.70759 11.2261 10.0095L12.0581 10.5642Z" fill="black"/>
</svg>
