<svg width="15" height="15" viewBox="0 0 15 15" fill="none" xmlns="http://www.w3.org/2000/svg">
<path d="M3.21904 9.31821C4.37368 7.91858 5.91674 7.15689 7.50001 7.15689V6.15689C5.5826 6.15689 3.76836 7.0809 2.44765 8.68185L3.21904 9.31821ZM7.50001 7.15689C9.08328 7.15689 10.6263 7.91858 11.781 9.31821L12.5524 8.68185C11.2317 7.0809 9.41742 6.15689 7.50001 6.15689V7.15689ZM0.885695 6.31818C2.65917 4.1684 5.04156 2.98528 7.5 2.98528V1.98528C4.70742 1.98528 2.05386 3.33073 0.114305 5.68182L0.885695 6.31818ZM7.5 2.98528C9.95844 2.98528 12.3408 4.1684 14.1143 6.31818L14.8857 5.68182C12.9461 3.33073 10.2926 1.98528 7.5 1.98528V2.98528ZM7.5 12C7.22386 12 7 11.7761 7 11.5H6C6 12.3284 6.67157 13 7.5 13V12ZM8 11.5C8 11.7761 7.77614 12 7.5 12V13C8.32843 13 9 12.3284 9 11.5H8ZM7.5 11C7.77614 11 8 11.2239 8 11.5H9C9 10.6716 8.32843 10 7.5 10V11ZM7.5 10C6.67157 10 6 10.6716 6 11.5H7C7 11.2239 7.22386 11 7.5 11V10Z" fill="black"/>
</svg>
